<svg width="112" height="112" viewBox="0 0 112 112" fill="none" xmlns="http://www.w3.org/2000/svg">
  <path d="M56 14L86 26V52C86 68 72 80 56 88C40 80 26 68 26 52V26L56 14Z" fill="white" stroke="#1F3664" stroke-width="3" stroke-linejoin="round"/>
  <path d="M56 24L78 33V52C78 63 68 72 56 78C44 72 34 63 34 52V33L56 24Z" stroke="#2669F3" stroke-width="3" stroke-linejoin="round"/>
  <rect x="46" y="44" width="20" height="24" rx="4" fill="#2669F3" stroke="#1F3664" stroke-width="2"/>
  <path d="M52 44V38C52 34 54 32 56 32C58 32 60 34 60 38V44" stroke="#1F3664" stroke-width="3" stroke-linecap="round"/>
  <circle cx="56" cy="56" r="3" fill="white"/>
  <circle cx="56" cy="92" r="10" fill="#2669F3" stroke="#1F3664" stroke-width="2"/>
  <path d="M52 92L55 95L61 89" stroke="white" stroke-width="2.5" stroke-linecap="round" stroke-linejoin="round"/>
</svg>
