<svg width="112" height="112" viewBox="0 0 112 112" fill="none" xmlns="http://www.w3.org/2000/svg">
  <path d="M28 72C28 72 36 58 56 58C76 58 84 72 84 72" stroke="#1F3664" stroke-width="3" stroke-linecap="round"/>
  <circle cx="56" cy="42" r="16" fill="white" stroke="#1F3664" stroke-width="3"/>
  <path d="M38 42H74" stroke="#2669F3" stroke-width="3" stroke-linecap="round"/>
  <path d="M34 42C34 30 43 22 56 22C69 22 78 30 78 42" stroke="#2669F3" stroke-width="3"/>
  <rect x="30" y="40" width="10" height="18" rx="5" fill="#2669F3" stroke="#1F3664" stroke-width="2"/>
  <rect x="72" y="40" width="10" height="18" rx="5" fill="#2669F3" stroke="#1F3664" stroke-width="2"/>
  <path d="M40 58V64" stroke="#1F3664" stroke-width="3" stroke-linecap="round"/>
  <path d="M72 58V64" stroke="#1F3664" stroke-width="3" stroke-linecap="round"/>
  <rect x="74" y="24" width="24" height="18" rx="8" fill="#2669F3"/>
  <circle cx="80" cy="33" r="2" fill="white"/>
  <circle cx="86" cy="33" r="2" fill="white"/>
  <circle cx="92" cy="33" r="2" fill="white"/>
</svg>
