<svg width="240" height="240" viewBox="0 0 240 240" fill="none" xmlns="http://www.w3.org/2000/svg" role="img" aria-label="Compensall">
  <g transform="translate(120 120) scale(1.32) translate(-118 -84)">
    <path d="M159.082 100.112C158.682 102.9 160.617 105.481 163.405 105.881C166.193 106.28 168.774 104.346 169.174 101.558C169.573 98.7697 167.638 96.1882 164.85 95.789C162.062 95.3897 159.481 97.3241 159.082 100.112Z" fill="#FFFFFF" />
    <path d="M234.506 81.7123C233.611 81.6091 232.537 81.788 231.608 81.7123L136.706 89.0368C136.321 89.9455 135.88 90.8335 135.378 91.6871C134.848 92.5889 134.249 93.4494 133.588 94.2548C132.934 95.0602 132.218 95.8106 131.44 96.4989C130.662 97.1942 129.822 97.8344 128.948 98.3989C128.432 98.7362 127.895 99.0666 127.337 99.3351C126.787 99.6036 126.208 99.8032 125.63 99.996C125.534 100.023 125.307 100.085 125.286 100.202C125.272 100.278 125.369 100.375 125.417 100.423C125.548 100.554 125.706 100.657 125.864 100.76C126.202 100.987 126.553 101.18 126.917 101.352C127.991 101.862 129.182 102.13 130.373 102.13C133.822 102.13 136.761 99.9753 137.925 96.9326L148.478 95.8519V112.18H147.796V109.695C147.796 109.117 147.328 108.649 146.75 108.649H145.057C144.485 108.649 144.024 109.11 144.024 109.682V115.87C144.024 116.448 144.492 116.917 145.07 116.917H146.75C147.328 116.917 147.796 116.448 147.796 115.87V113.571H151.465V115.87C151.465 116.448 151.934 116.917 152.512 116.917H154.191C154.77 116.917 155.238 116.448 155.238 115.87V109.695C155.238 109.117 154.77 108.649 154.191 108.649H152.512C151.934 108.649 151.465 109.117 151.465 109.695V112.18H150.784V95.5696L160.125 94.3787C157.971 95.7142 156.539 98.096 156.539 100.815C156.539 105.001 159.933 108.394 164.118 108.394C168.304 108.394 171.697 105.001 171.697 100.815C171.697 97.4145 169.46 94.537 166.376 93.5802L167.257 93.47C189.706 91.0538 212.113 88.1832 234.478 85.1474C236.599 84.8376 236.674 81.9464 234.506 81.6917V81.7123ZM170.314 101.717C169.825 105.131 166.658 107.506 163.244 107.018C159.829 106.529 157.454 103.362 157.943 99.9478C158.432 96.5334 161.599 94.1584 165.013 94.6472C168.427 95.1359 170.802 98.3025 170.314 101.717Z" fill="#FFFFFF" />
    <path d="M96.7831 74.9922H69.688C69.4884 74.9922 69.2957 74.9922 69.096 75.006C68.9652 75.0198 68.8344 75.0473 68.7174 75.1162C68.4352 75.2882 68.4558 75.66 68.5315 75.9491C68.5935 76.1832 68.7518 76.3277 68.9928 76.3484L97.8432 78.2759L98.4215 74.9922H96.7762H96.7831Z" fill="#FFFFFF" />
    <path d="M166.979 75.0064C166.78 74.9858 166.587 74.9927 166.387 74.9927H137.654L138.232 78.2763L167.083 76.3488C167.324 76.335 167.489 76.1836 167.544 75.9495C167.62 75.6673 167.64 75.2956 167.358 75.1166C167.248 75.0477 167.11 75.0202 166.979 75.0064Z" fill="#FFFFFF" />
    <path d="M71.2341 95.789C68.4461 96.1882 66.5117 98.7697 66.911 101.558C67.3103 104.346 69.8917 106.28 72.6797 105.881C75.4677 105.481 77.4021 102.9 77.0028 100.112C76.6035 97.3241 74.0221 95.3897 71.2341 95.789Z" fill="#FFFFFF" />
    <path d="M41.1099 73.5339C43.7189 73.5339 45.9699 71.6959 46.4999 69.142C53.4114 35.9891 82.8607 11.0074 118.037 11.0074C153.214 11.0074 182.664 35.996 189.575 69.1489C190.105 71.7097 192.356 73.5477 194.972 73.5477C198.476 73.5477 201.064 70.3191 200.348 66.891C192.391 28.7472 158.508 6.21195e-05 118.037 6.21195e-05C77.567 6.21195e-05 43.6844 28.7404 35.7266 66.8841C35.0107 70.3123 37.6059 73.5408 41.1099 73.5408V73.5339Z" fill="#FFFFFF" />
    <path d="M194.518 99.4247H194.408C191.936 99.4247 189.775 101.07 189.107 103.452C180.406 134.512 151.845 157.36 118.038 157.36C84.2308 157.36 55.6694 134.512 46.9682 103.452C46.3005 101.07 44.1389 99.4247 41.6676 99.4247H41.5575C37.9227 99.4247 35.2725 102.894 36.25 106.398C46.2454 142.167 79.1229 168.477 118.038 168.477C156.952 168.477 189.83 142.167 199.825 106.398C200.803 102.894 198.153 99.4247 194.518 99.4247Z" fill="#FFFFFF" />
    <path d="M69.7041 93.5933C66.6201 94.5501 64.376 97.4276 64.376 100.828C64.376 105.014 67.7697 108.407 71.9552 108.407C76.1406 108.407 79.5344 105.014 79.5344 100.828C79.5344 98.1091 78.0956 95.7204 75.9478 94.3849L85.2962 95.5758V112.187H84.6147V109.702C84.6147 109.123 84.1466 108.655 83.5683 108.655H81.8886C81.3104 108.655 80.8423 109.123 80.8423 109.702V115.876C80.8423 116.455 81.3104 116.923 81.8886 116.923H83.5683C84.1466 116.923 84.6147 116.455 84.6147 115.876V113.577H88.2838V115.876C88.2838 116.455 88.7519 116.923 89.3301 116.923H91.0098C91.5881 116.923 92.0562 116.455 92.0562 115.876V109.688C92.0562 109.116 91.5949 108.655 91.0236 108.655H89.3301C88.7519 108.655 88.2838 109.123 88.2838 109.702V112.187H87.6023V95.8512L98.176 96.9388C99.3393 99.9815 102.279 102.136 105.728 102.136C106.919 102.136 108.103 101.875 109.183 101.358C109.548 101.186 109.899 100.993 110.237 100.766C110.388 100.663 110.553 100.56 110.684 100.429C110.732 100.381 110.829 100.284 110.815 100.209C110.794 100.092 110.56 100.03 110.471 100.002C109.892 99.8094 109.314 99.6098 108.763 99.3413C108.206 99.0728 107.676 98.7424 107.153 98.4051C106.271 97.8337 105.438 97.2004 104.661 96.5051C103.89 95.8167 103.174 95.0664 102.513 94.261C101.852 93.4556 101.253 92.5951 100.723 91.6933C100.22 90.8397 99.7799 89.9517 99.3944 89.043L4.49289 81.7185C3.57045 81.7942 2.49655 81.6084 1.59476 81.7185C-0.573668 81.9732 -0.497939 84.8645 1.6223 85.1742C23.995 88.21 46.3952 91.0806 68.8436 93.4969L69.711 93.607L69.7041 93.5933ZM78.1369 99.9471C78.6257 103.361 76.2507 106.528 72.8363 107.017C69.4219 107.506 66.2553 105.131 65.7665 101.716C65.2778 98.3018 67.6527 95.1352 71.0671 94.6465C74.4816 94.1577 77.6481 96.5327 78.1369 99.9471Z" fill="#FFFFFF" />
    <path d="M120.36 113.412H121.71C122.178 113.412 122.549 113.033 122.549 112.572V107.602C122.549 107.14 122.178 106.769 121.716 106.769H120.353C119.885 106.769 119.514 107.147 119.514 107.608V109.605H118.97V101.041H117.111V109.605H116.567V107.608C116.567 107.14 116.189 106.769 115.727 106.769H114.378C113.91 106.769 113.538 107.147 113.538 107.608V112.572C113.538 113.04 113.917 113.412 114.378 113.412H115.727C116.196 113.412 116.567 113.033 116.567 112.572V110.72H119.52V112.572C119.52 113.04 119.899 113.412 120.36 113.412Z" fill="#FFFFFF" />
    <path d="M137.093 81.0915C137.093 71.3094 129.72 63.2484 120.22 62.1676L118.727 28.3332C118.713 28.0028 118.438 27.7412 118.114 27.7412C117.79 27.7412 117.515 27.9959 117.501 28.3263L115.863 62.1607C106.37 63.2415 98.9905 71.3025 98.9905 81.0846C98.9905 91.6032 107.52 100.132 118.038 100.132C128.557 100.132 137.086 91.6032 137.086 81.0846L137.093 81.0915ZM118.038 72.7963C113.13 72.7963 108.649 74.6344 105.255 77.6702C105.358 76.7477 105.606 75.8735 105.978 75.0612C106.556 73.8014 107.589 72.8101 108.835 72.2181C111.643 70.8826 114.789 70.1323 118.107 70.1323C121.012 70.1323 123.779 70.7036 126.313 71.7431C128.653 72.7069 130.381 74.8133 130.76 77.3191C130.78 77.4361 130.794 77.5462 130.808 77.6633C127.414 74.6275 122.94 72.7895 118.025 72.7895L118.038 72.7963Z" fill="#FFFFFF" />
  </g>
</svg>
