<svg width="220" height="41.0552" overflow="visible" style="display: block;" viewBox="0 0 220 41.0552" fill="none" xmlns="http://www.w3.org/2000/svg">
<g id="Logo">
<path id="Vector" d="M38.3989 24.3682C38.293 25.0067 38.8022 25.5989 39.5321 25.689C40.262 25.7817 40.9389 25.3363 41.0419 24.6978C41.1449 24.0592 40.6387 23.4671 39.9088 23.377C39.1789 23.2843 38.5019 23.7297 38.3989 24.3682Z" fill="var(--fill-0, white)"/>
<path id="Vector_2" d="M56.6869 20.0344C56.4676 20.0105 56.2072 20.0531 55.9796 20.0344L32.8256 21.7689C32.7324 21.9844 32.6255 22.1945 32.5022 22.3967C32.3733 22.6095 32.2281 22.8143 32.0663 23.0059C31.9074 23.1947 31.7319 23.373 31.5428 23.5379C31.3537 23.7028 31.1481 23.8545 30.9343 23.9875C30.8082 24.0673 30.6766 24.1444 30.5423 24.2083C30.408 24.2721 30.2682 24.32 30.1256 24.3652C30.1037 24.3732 30.0462 24.3865 30.0407 24.4131C30.0379 24.4317 30.0599 24.4557 30.0736 24.4663C30.1065 24.4982 30.1448 24.5222 30.1832 24.5461C30.2654 24.5993 30.3504 24.6445 30.4409 24.6871C30.704 24.8068 30.9918 24.8707 31.2851 24.8707C32.1266 24.8707 32.8448 24.3599 33.1271 23.639L35.8545 23.3677V27.2489H35.6901V26.661C35.6901 26.5226 35.5749 26.4136 35.4351 26.4136H35.0212C34.8814 26.4136 34.7691 26.5226 34.7691 26.6583V28.1241C34.7691 28.2624 34.8842 28.3715 35.024 28.3715H35.4324C35.5749 28.3715 35.6873 28.2598 35.6873 28.1241V27.5787H36.5837V28.1241C36.5837 28.2624 36.6988 28.3715 36.8386 28.3715H37.247C37.3895 28.3715 37.5019 28.2598 37.5019 28.1241V26.6636C37.5019 26.5253 37.3868 26.4162 37.247 26.4162H36.8386C36.696 26.4162 36.5837 26.528 36.5837 26.6636V27.2515H36.4192V23.3012L38.7382 23.0139C38.1899 23.3251 37.8226 23.9024 37.8226 24.5621C37.8226 25.5517 38.6504 26.3551 39.6701 26.3551C40.6898 26.3551 41.5176 25.5517 41.5176 24.5621C41.5176 23.7401 40.9475 23.0484 40.1718 22.8356L40.2814 22.8223C45.7581 22.2504 51.2238 21.5694 56.6814 20.8511C57.1994 20.7766 57.2159 20.093 56.6869 20.0318V20.0344ZM41.1777 24.7722C41.0571 25.5809 40.2869 26.1422 39.4536 26.0278C38.6203 25.9108 38.0419 25.1633 38.1598 24.3546C38.2777 23.5459 39.0506 22.9846 39.8839 23.099C40.7172 23.216 41.2956 23.9635 41.1777 24.7722Z" fill="var(--fill-0, white)"/>
<path id="Vector_3" d="M32.771 21.3209C33.026 20.6133 33.1001 19.8457 33.0041 19.0999C32.9081 18.3623 32.6449 17.6493 32.2336 17.0292C31.814 16.4009 31.2409 15.8791 30.5691 15.5349C30.0975 15.2918 29.6012 15.1634 29.0802 15.0705H29.0446L28.6744 6.67566H28.3865L27.9779 15.076C24.3749 15.5431 22.8092 19.9932 25.1207 22.7441C26.744 24.6755 29.5107 24.9241 31.4301 23.2632C32.0334 22.7414 32.4995 22.0721 32.7683 21.3209H32.771ZM31.2766 18.6983C31.1697 18.5945 31.0627 18.4907 30.9393 18.406C30.8159 18.3213 30.6816 18.2503 30.5472 18.1875C30.3416 18.0891 30.1277 18.0099 29.9056 17.9498C29.4367 17.8187 28.9459 17.7668 28.4578 17.7777C27.9779 17.7886 27.4926 17.8597 27.0347 18.0017C26.8263 18.0673 26.6206 18.1465 26.4259 18.2449C26.2203 18.3487 26.0146 18.4661 25.8446 18.6191C25.7815 18.6765 25.7212 18.7393 25.6609 18.7994C25.606 18.8541 25.5457 18.9305 25.4635 18.9415C25.458 18.9415 25.4059 18.9497 25.4059 18.9469C25.6225 18.2421 25.7925 17.7968 26.5109 17.5155C27.7394 17.0374 29.4175 17.0128 30.6322 17.5401C31.2711 17.8187 31.5206 18.3159 31.6687 18.9688C31.6715 18.9824 31.6221 18.9797 31.6166 18.977C31.5892 18.9715 31.5618 18.9551 31.5398 18.9387C31.4411 18.8704 31.3616 18.783 31.2766 18.6983Z" fill="var(--fill-0, white)"/>
<path id="Vector_4" d="M23.6326 18.358H16.9864C16.9368 18.358 16.8899 18.358 16.8403 18.3603C16.8072 18.3625 16.7742 18.3694 16.7466 18.3831C16.6777 18.4197 16.6832 18.4951 16.6997 18.5523C16.7135 18.6003 16.7549 18.63 16.8128 18.6323L23.8917 19.0255L24.0323 18.358H23.6299H23.6326Z" fill="var(--fill-0, white)"/>
<path id="Vector_5" d="M40.2413 18.3608C40.1917 18.3563 40.1448 18.3585 40.0952 18.3585H33.0445L33.185 19.0255L40.2633 18.6326C40.324 18.6304 40.3626 18.5984 40.3763 18.5527C40.3929 18.4956 40.4011 18.4202 40.3295 18.3837C40.3019 18.37 40.2688 18.3631 40.2358 18.3608H40.2413Z" fill="var(--fill-0, white)"/>
<path id="Vector_6" d="M17.1683 23.3764C16.4382 23.4691 15.9318 24.059 16.0349 24.6978C16.1379 25.3367 16.815 25.7797 17.5451 25.6896C18.2752 25.5968 18.7815 25.007 18.6785 24.3681C18.5725 23.7293 17.8984 23.2862 17.1683 23.3764Z" fill="var(--fill-0, white)"/>
<path id="Vector_7" d="M47.0643 24.3661H47.0371C46.4384 24.3661 45.9131 24.7653 45.7525 25.3384C43.646 32.8478 36.725 38.3692 28.5385 38.3692C20.3519 38.3692 13.4309 32.8478 11.3244 25.3384C11.1638 24.7626 10.6386 24.3661 10.0398 24.3661H10.0126C9.13081 24.3661 8.49124 25.2053 8.72802 26.0499C11.1475 34.6946 19.1136 41.0552 28.5385 41.0552C37.9633 41.0552 45.9294 34.6946 48.3489 26.0499C48.5857 25.2026 47.9434 24.3661 47.0643 24.3661Z" fill="var(--fill-0, white)"/>
<path id="Vector_8" d="M9.68134 18.0215C10.3174 18.0215 10.8606 17.5699 10.9916 16.9449C12.6704 8.81938 19.8251 2.6984 28.3719 2.6984C36.9187 2.6984 44.0734 8.82213 45.7522 16.9476C45.8805 17.5754 46.4291 18.027 47.0624 18.0242C47.9141 18.0242 48.542 17.2312 48.37 16.3914C46.4373 7.04339 38.2044 0 28.3719 0C18.5394 0 10.3065 7.04339 8.37379 16.3914C8.19909 17.2312 8.82966 18.0242 9.68134 18.0242V18.0215Z" fill="var(--fill-0, white)"/>
<path id="Vector_9" d="M16.9047 22.8366C16.1289 23.0494 15.5588 23.7409 15.5588 24.5627C15.5588 25.5522 16.3866 26.3554 17.4063 26.3554C18.4261 26.3554 19.2539 25.5522 19.2539 24.5627C19.2539 23.9031 18.8866 23.326 18.3383 23.0148L20.6574 23.302V27.2517H20.4929V26.6639C20.4929 26.5256 20.3778 26.4166 20.238 26.4166H19.8296C19.687 26.4166 19.5746 26.5283 19.5746 26.6639V28.1241C19.5746 28.2624 19.6898 28.3715 19.8296 28.3715H20.238C20.3805 28.3715 20.4929 28.2598 20.4929 28.1241V27.5789H21.3893V28.1241C21.3893 28.2624 21.5044 28.3715 21.6442 28.3715H22.0527C22.1952 28.3715 22.3076 28.2598 22.3076 28.1241V26.6586C22.3076 26.523 22.1952 26.4139 22.0554 26.4139H21.6415C21.4989 26.4139 21.3866 26.5256 21.3866 26.6613V27.2491H21.2221V23.3685L23.9496 23.6398C24.2319 24.3606 24.9501 24.8713 25.7917 24.8713C26.0822 24.8713 26.3728 24.8074 26.636 24.6878C26.7237 24.6479 26.8114 24.6 26.8936 24.5468C26.932 24.5229 26.9704 24.4989 27.0033 24.467C27.0142 24.4564 27.0389 24.4324 27.0362 24.4138C27.0307 24.3872 26.9759 24.3712 26.9512 24.3659C26.8086 24.3207 26.6688 24.2728 26.5345 24.209C26.3975 24.1452 26.2686 24.0654 26.1425 23.9882C25.9287 23.8526 25.7231 23.7037 25.534 23.5388C25.3448 23.3765 25.1694 23.1983 25.0104 23.0068C24.8487 22.8153 24.7034 22.6105 24.5746 22.3977C24.4512 22.1956 24.3443 21.9855 24.2511 21.77L1.09619 20.0359C0.871414 20.0519 0.608258 20.0093 0.388962 20.0359C-0.14009 20.0971 -0.1209 20.7806 0.394445 20.8551C5.85217 21.5732 11.3181 22.2541 16.795 22.8259L16.9047 22.8392V22.8366ZM18.9167 24.3526C19.0373 25.1612 18.4562 25.9112 17.6229 26.0256C16.7896 26.1426 16.0165 25.5788 15.8987 24.7702C15.7808 23.9617 16.3592 23.2116 17.1925 23.0972C18.0258 22.9802 18.7989 23.5441 18.9167 24.3526Z" fill="var(--fill-0, white)"/>
<path id="Vector_10" d="M29.14 27.7039H29.4887C29.6078 27.7039 29.7067 27.6112 29.7067 27.4993V26.2906C29.7067 26.1787 29.6108 26.0887 29.4916 26.0887H29.14C29.0208 26.0887 28.922 26.1814 28.922 26.2933V26.779H28.7796V24.6999H28.2972V26.779H28.1548V26.2933C28.1548 26.1814 28.056 26.0887 27.9369 26.0887H27.5881C27.469 26.0887 27.3702 26.1814 27.3702 26.2933V27.4993C27.3702 27.6112 27.469 27.7039 27.5881 27.7039H27.9369C28.056 27.7039 28.1548 27.6112 28.1548 27.4993V27.0491H28.9191V27.4993C28.9191 27.6112 29.0179 27.7039 29.1371 27.7039H29.14Z" fill="var(--fill-0, white)"/>
<g id="Group">
<path id="Vector_11" d="M69.6405 31.3854C68.0413 31.3854 66.6464 31.07 65.4557 30.4424C64.2651 29.8147 63.3522 28.9195 62.7106 27.763C62.069 26.6065 61.7498 25.2365 61.7498 23.6594C61.7498 22.4806 61.9286 21.426 62.2893 20.4862C62.65 19.5463 63.1735 18.7498 63.8629 18.0903C64.5524 17.4308 65.3887 16.9274 66.3687 16.577C67.3486 16.2265 68.4371 16.0545 69.6373 16.0545C70.2565 16.0545 70.9173 16.1278 71.6163 16.2807C72.3154 16.4304 73.0048 16.6853 73.6847 17.0453C74.0837 17.2237 74.3583 17.4786 74.5083 17.81C74.6583 18.1381 74.7126 18.479 74.6743 18.8263C74.6328 19.1767 74.5083 19.4858 74.3008 19.7534C74.0933 20.021 73.8252 20.2026 73.506 20.2918C73.1868 20.381 72.8261 20.3269 72.4271 20.1262C72.0472 19.9063 71.6514 19.747 71.2429 19.6483C70.8343 19.5495 70.448 19.4985 70.0873 19.4985C69.4872 19.4985 68.9574 19.5941 68.4977 19.7821C68.0381 19.9732 67.6519 20.2409 67.3422 20.5913C67.0326 20.9418 66.7932 21.3751 66.6208 21.8944C66.4517 22.4137 66.3655 23.0127 66.3655 23.6913C66.3655 25.0071 66.6911 26.0425 67.339 26.7912C67.9902 27.54 68.9031 27.9127 70.0842 27.9127C70.4449 27.9127 70.8247 27.8681 71.2237 27.7789C71.6227 27.6897 72.0217 27.5336 72.4239 27.3137C72.8229 27.1162 73.1836 27.0652 73.5028 27.164C73.822 27.2628 74.0774 27.4476 74.2689 27.7184C74.4572 27.9892 74.5689 28.2982 74.5977 28.6455C74.6264 28.996 74.5689 29.3337 74.4189 29.665C74.2689 29.9932 74.0039 30.248 73.6241 30.4265C72.9442 30.7674 72.2643 31.0095 71.5844 31.1592C70.9045 31.309 70.2533 31.3854 69.6341 31.3854H69.6405Z" fill="var(--fill-0, white)"/>
<path id="Vector_12" d="M83.5895 31.3854C82.0094 31.3854 80.6337 31.0763 79.4654 30.4582C78.2939 29.8402 77.3906 28.9513 76.7522 27.7948C76.1106 26.6382 75.7914 25.2715 75.7914 23.6912C75.7914 22.5124 75.9702 21.4578 76.3308 20.518C76.6915 19.5781 77.215 18.7784 77.9045 18.1094C78.594 17.4403 79.4207 16.9305 80.3783 16.5833C81.3391 16.2328 82.4084 16.0608 83.5863 16.0608C85.1663 16.0608 86.5421 16.3698 87.7103 16.9879C88.8786 17.606 89.7883 18.4853 90.4395 19.6227C91.0907 20.7601 91.4131 22.1173 91.4131 23.6944C91.4131 24.8923 91.2279 25.9596 90.8577 26.8963C90.4874 27.8362 89.9639 28.6422 89.284 29.3208C88.6041 29.9995 87.7806 30.5124 86.8102 30.8629C85.8398 31.2133 84.7641 31.3854 83.5863 31.3854H83.5895ZM83.5895 28.0019C84.2502 28.0019 84.8184 27.8426 85.3004 27.524C85.7824 27.2054 86.159 26.7306 86.4399 26.103C86.7208 25.4754 86.8613 24.6725 86.8613 23.6944C86.8613 22.2384 86.5612 21.1647 85.9611 20.4766C85.361 19.7884 84.5726 19.4443 83.5927 19.4443C82.9511 19.4443 82.3893 19.594 81.8977 19.8935C81.4061 20.193 81.0295 20.6582 80.7582 21.2858C80.4868 21.9134 80.3528 22.7195 80.3528 23.6944C80.3528 25.1504 80.6528 26.2336 81.2529 26.9441C81.853 27.6514 82.6319 28.0082 83.5927 28.0082L83.5895 28.0019Z" fill="var(--fill-0, white)"/>
<path id="Vector_13" d="M96.5173 31.3249C95.7767 31.3249 95.2117 31.1242 94.8223 30.7259C94.4329 30.3277 94.2382 29.7574 94.2382 29.0183V18.3898C94.2382 17.6507 94.4329 17.0867 94.8223 16.698C95.2117 16.3094 95.7576 16.115 96.4566 16.115C97.1557 16.115 97.727 16.3094 98.1069 16.698C98.4867 17.0867 98.6783 17.6507 98.6783 18.3898V20.3046L98.3495 19.1067C98.7485 18.1891 99.3709 17.4499 100.21 16.8924C101.05 16.3348 102.039 16.0545 103.179 16.0545C104.319 16.0545 105.27 16.3253 106.029 16.8637C106.789 17.4021 107.329 18.2305 107.648 19.3488H107.226C107.667 18.3325 108.34 17.5296 109.25 16.9402C110.16 16.3508 111.204 16.0577 112.385 16.0577C113.566 16.0577 114.46 16.2839 115.191 16.7331C115.921 17.1823 116.464 17.8609 116.825 18.7689C117.186 19.6769 117.364 20.8303 117.364 22.2257V29.0214C117.364 29.7606 117.17 30.3277 116.78 30.7291C116.391 31.1274 115.835 31.3281 115.117 31.3281C114.399 31.3281 113.812 31.1274 113.422 30.7291C113.033 30.3309 112.838 29.7606 112.838 29.0214V22.3755C112.838 21.3974 112.682 20.6837 112.372 20.2345C112.062 19.7853 111.536 19.5591 110.798 19.5591C109.94 19.5591 109.269 19.8585 108.787 20.4575C108.309 21.0565 108.066 21.9039 108.066 23.0031V29.0214C108.066 29.7606 107.871 30.3277 107.482 30.7291C107.092 31.1274 106.537 31.3281 105.816 31.3281C105.094 31.3281 104.536 31.1274 104.137 30.7291C103.738 30.3309 103.536 29.7606 103.536 29.0214V22.3755C103.536 21.3974 103.38 20.6837 103.07 20.2345C102.761 19.7853 102.234 19.5591 101.497 19.5591C100.638 19.5591 99.9678 19.8585 99.4858 20.4575C99.007 21.0565 98.7676 21.9039 98.7676 23.0031V29.0214C98.7676 30.5571 98.0175 31.3281 96.5173 31.3281V31.3249Z" fill="var(--fill-0, white)"/>
<path id="Vector_14" d="M123.122 36.7156C122.382 36.7156 121.817 36.5212 121.428 36.1326C121.038 35.7439 120.843 35.1704 120.843 34.4121V18.3962C120.843 17.657 121.038 17.0931 121.428 16.7044C121.817 16.3157 122.363 16.1214 123.062 16.1214C123.802 16.1214 124.361 16.3157 124.741 16.7044C125.121 17.0931 125.312 17.657 125.312 18.3962V20.432L124.983 19.2659C125.283 18.307 125.887 17.536 126.8 16.9465C127.709 16.3571 128.753 16.064 129.934 16.064C131.214 16.064 132.338 16.3731 133.308 16.9912C134.279 17.6092 135.032 18.4886 135.571 19.626C136.111 20.7634 136.382 22.1206 136.382 23.6977C136.382 25.2747 136.111 26.6415 135.571 27.8012C135.032 28.9609 134.282 29.8466 133.321 30.4647C132.36 31.0828 131.23 31.3918 129.931 31.3918C128.772 31.3918 127.741 31.1083 126.841 30.538C125.941 29.9677 125.331 29.2253 125.012 28.3078H125.373V34.4153C125.373 35.1736 125.178 35.7471 124.789 36.1357C124.399 36.5244 123.844 36.7188 123.126 36.7188L123.122 36.7156ZM128.581 28.0019C129.219 28.0019 129.784 27.8426 130.276 27.524C130.764 27.2054 131.147 26.7307 131.415 26.1031C131.687 25.4754 131.821 24.6726 131.821 23.6945C131.821 22.2385 131.521 21.1648 130.921 20.4766C130.32 19.7884 129.542 19.4444 128.581 19.4444C127.939 19.4444 127.377 19.5941 126.886 19.8936C126.394 20.1931 126.011 20.6582 125.73 21.2859C125.449 21.9135 125.309 22.7196 125.309 23.6945C125.309 25.1505 125.609 26.2337 126.209 26.9442C126.809 27.6515 127.598 28.0083 128.578 28.0083L128.581 28.0019Z" fill="var(--fill-0, white)"/>
<path id="Vector_15" d="M146.785 31.3854C145.045 31.3854 143.551 31.07 142.3 30.4423C141.049 29.8147 140.091 28.9258 139.421 27.7788C138.751 26.6319 138.416 25.2778 138.416 23.7231C138.416 22.1683 138.735 20.8748 139.376 19.7278C140.015 18.5809 140.912 17.6824 142.061 17.0325C143.21 16.3826 144.515 16.0608 145.974 16.0608C147.034 16.0608 147.995 16.236 148.853 16.5833C149.712 16.9337 150.453 17.4307 151.072 18.0807C151.691 18.7306 152.16 19.5176 152.483 20.4447C152.802 21.3718 152.962 22.4073 152.962 23.5447C152.962 23.9238 152.84 24.2073 152.601 24.3985C152.361 24.5897 152.01 24.6821 151.551 24.6821H142.131V22.3467H149.69L149.211 22.7673C149.211 21.9485 149.09 21.2667 148.85 20.7155C148.611 20.1675 148.266 19.7533 147.816 19.473C147.366 19.1926 146.811 19.0524 146.153 19.0524C145.412 19.0524 144.784 19.2213 144.263 19.5622C143.743 19.9031 143.344 20.3905 143.063 21.0309C142.782 21.6681 142.642 22.4391 142.642 23.3344V23.5733C142.642 25.0899 142.996 26.2081 143.708 26.925C144.417 27.645 145.473 28.0019 146.871 28.0019C147.35 28.0019 147.902 27.9413 148.521 27.8234C149.141 27.7024 149.722 27.5144 150.261 27.2531C150.721 27.0333 151.129 26.96 151.49 27.0269C151.851 27.097 152.128 27.2627 152.33 27.5208C152.531 27.7788 152.646 28.0783 152.674 28.4192C152.703 28.7601 152.63 29.0915 152.451 29.4228C152.272 29.751 151.972 30.025 151.551 30.2448C150.871 30.6239 150.105 30.9075 149.256 31.0986C148.407 31.2866 147.58 31.3822 146.782 31.3822L146.785 31.3854Z" fill="var(--fill-0, white)"/>
<path id="Vector_16" d="M157.884 31.3249C157.143 31.3249 156.578 31.1242 156.189 30.7259C155.799 30.3277 155.605 29.7574 155.605 29.0182V18.3898C155.605 17.6506 155.799 17.0867 156.189 16.698C156.578 16.3093 157.124 16.115 157.823 16.115C158.522 16.115 159.093 16.3093 159.473 16.698C159.853 17.0867 160.045 17.6506 160.045 18.3898V20.0975L159.716 19.1098C160.175 18.1317 160.862 17.3798 161.771 16.8509C162.681 16.3221 163.715 16.0576 164.877 16.0576C166.039 16.0576 167.026 16.2838 167.785 16.7331C168.545 17.1823 169.116 17.8609 169.496 18.7689C169.876 19.6769 170.067 20.8302 170.067 22.2257V29.0214C170.067 29.7606 169.873 30.3277 169.483 30.7291C169.094 31.1273 168.529 31.3281 167.788 31.3281C167.048 31.3281 166.515 31.1273 166.122 30.7291C165.733 30.3308 165.538 29.7606 165.538 29.0214V22.436C165.538 21.4165 165.353 20.6837 164.983 20.2345C164.612 19.7852 164.047 19.559 163.288 19.559C162.327 19.559 161.564 19.8585 160.993 20.4575C160.421 21.0564 160.137 21.8561 160.137 22.8533V29.0214C160.137 30.557 159.387 31.3281 157.887 31.3281L157.884 31.3249Z" fill="var(--fill-0, white)"/>
<path id="Vector_17" d="M179.088 31.3854C178.207 31.3854 177.304 31.3058 176.375 31.1465C175.446 30.9872 174.6 30.7164 173.84 30.3373C173.441 30.1397 173.154 29.8848 172.985 29.5726C172.816 29.2636 172.739 28.9482 172.762 28.6296C172.781 28.311 172.886 28.021 173.078 27.763C173.266 27.5049 173.518 27.3297 173.828 27.2405C174.137 27.1513 174.482 27.1863 174.862 27.3456C175.682 27.6865 176.432 27.9255 177.112 28.0656C177.792 28.2058 178.462 28.2759 179.123 28.2759C179.982 28.2759 180.607 28.1421 180.997 27.8713C181.386 27.6005 181.581 27.2468 181.581 26.8072C181.581 26.4089 181.45 26.1094 181.192 25.9087C180.933 25.708 180.55 25.571 180.052 25.4882L176.902 24.9179C175.66 24.6981 174.705 24.2425 174.038 23.5543C173.368 22.8661 173.033 21.9836 173.033 20.9035C173.033 19.9063 173.314 19.0429 173.872 18.3133C174.431 17.5837 175.207 17.0262 176.196 16.6375C177.186 16.2488 178.309 16.0545 179.57 16.0545C180.47 16.0545 181.3 16.1341 182.06 16.2934C182.82 16.4527 183.551 16.714 184.25 17.0708C184.61 17.2492 184.866 17.4882 185.016 17.7908C185.166 18.0903 185.217 18.3994 185.166 18.718C185.115 19.0366 184.99 19.3265 184.792 19.5845C184.591 19.8426 184.336 20.0147 184.026 20.0943C183.717 20.174 183.362 20.1357 182.96 19.9732C182.318 19.6738 181.731 19.4603 181.192 19.3297C180.652 19.199 180.132 19.1353 179.631 19.1353C178.731 19.1353 178.079 19.2819 177.68 19.5686C177.281 19.8585 177.08 20.2217 177.08 20.6614C177.08 21.0023 177.195 21.2859 177.425 21.5153C177.655 21.7446 178.009 21.9008 178.491 21.9804L181.642 22.5507C182.941 22.7705 183.93 23.2038 184.61 23.8538C185.29 24.5037 185.629 25.3862 185.629 26.5045C185.629 28.021 185.035 29.2126 183.844 30.0824C182.654 30.949 181.07 31.3854 179.091 31.3854H179.088Z" fill="var(--fill-0, white)"/>
<path id="Vector_18" d="M193.337 31.3249C192.338 31.3249 191.441 31.1305 190.653 30.7418C189.861 30.3531 189.239 29.8179 188.779 29.1393C188.319 28.4607 188.089 27.7024 188.089 26.8645C188.089 25.7876 188.364 24.9402 188.913 24.3189C189.462 23.7008 190.372 23.2611 191.642 23.0031C192.913 22.745 194.646 22.6144 196.845 22.6144H198.195V24.201H196.877C195.259 24.201 193.982 24.2775 193.053 24.4272C192.124 24.577 191.473 24.8318 191.103 25.1918C190.732 25.5519 190.547 26.0584 190.547 26.7179C190.547 27.5367 190.831 28.2058 191.403 28.7219C191.974 29.2412 192.747 29.4993 193.726 29.4993C194.524 29.4993 195.23 29.3113 195.84 28.929C196.449 28.5499 196.928 28.0306 197.279 27.3711C197.63 26.7116 197.803 25.9533 197.803 25.0963V21.6841C197.803 20.4479 197.554 19.5527 197.053 19.0047C196.551 18.4567 195.734 18.1827 194.592 18.1827C193.892 18.1827 193.19 18.2719 192.491 18.4535C191.792 18.6319 191.052 18.9218 190.273 19.3201C189.992 19.4603 189.752 19.5049 189.555 19.4539C189.353 19.4029 189.194 19.301 189.076 19.1385C188.954 18.9792 188.884 18.7944 188.865 18.5841C188.846 18.3738 188.891 18.1699 188.999 17.9692C189.108 17.7717 189.283 17.6092 189.523 17.4913C190.404 17.0517 191.272 16.7331 192.134 16.5323C192.992 16.3348 193.813 16.2329 194.595 16.2329C195.856 16.2329 196.893 16.4368 197.713 16.8478C198.534 17.2587 199.143 17.8768 199.542 18.7052C199.941 19.5335 200.142 20.5977 200.142 21.8944V30.0059C200.142 30.4041 200.047 30.7132 199.858 30.933C199.667 31.1528 199.392 31.2643 199.035 31.2643C198.655 31.2643 198.364 31.1528 198.163 30.933C197.962 30.7132 197.863 30.4041 197.863 30.0059V27.6705H198.135C197.975 28.4288 197.669 29.0788 197.219 29.6172C196.768 30.1556 196.213 30.5762 195.556 30.8757C194.895 31.1751 194.154 31.3249 193.337 31.3249Z" fill="var(--fill-0, white)"/>
<path id="Vector_19" d="M209.083 31.3249C207.644 31.3249 206.542 30.8852 205.783 30.0091C205.023 29.1297 204.643 27.8745 204.643 26.2369V10.9696C204.643 10.5714 204.742 10.2655 204.943 10.0552C205.144 9.84496 205.444 9.73983 205.843 9.73983C206.223 9.73983 206.523 9.84496 206.744 10.0552C206.964 10.2655 207.072 10.5682 207.072 10.9696V26.0584C207.072 27.1353 207.286 27.9414 207.717 28.467C208.148 28.9959 208.783 29.2604 209.623 29.2604C209.802 29.2604 209.961 29.2508 210.102 29.2317C210.242 29.2126 210.382 29.203 210.523 29.203C210.743 29.1839 210.896 29.2317 210.989 29.3528C211.078 29.4738 211.123 29.7128 211.123 30.0728C211.123 30.4328 211.043 30.7004 210.884 30.882C210.724 31.0604 210.462 31.1815 210.105 31.242C209.945 31.2612 209.776 31.2803 209.594 31.3026C209.415 31.3217 209.243 31.3313 209.083 31.3313V31.3249Z" fill="var(--fill-0, white)"/>
<path id="Vector_20" d="M217.96 31.3249C216.521 31.3249 215.419 30.8852 214.66 30.0091C213.9 29.1297 213.52 27.8745 213.52 26.2369V10.9696C213.52 10.5714 213.619 10.2655 213.82 10.0552C214.021 9.84496 214.321 9.73983 214.72 9.73983C215.1 9.73983 215.4 9.84496 215.621 10.0552C215.841 10.2655 215.949 10.5682 215.949 10.9696V26.0584C215.949 27.1353 216.163 27.9414 216.594 28.467C217.025 28.9959 217.66 29.2604 218.5 29.2604C218.679 29.2604 218.838 29.2508 218.979 29.2317C219.119 29.2126 219.259 29.203 219.4 29.203C219.62 29.1839 219.773 29.2317 219.866 29.3528C219.955 29.4738 220 29.7128 220 30.0728C220 30.4328 219.92 30.7004 219.761 30.882C219.601 31.0604 219.339 31.1815 218.982 31.242C218.822 31.2612 218.653 31.2803 218.471 31.3026C218.292 31.3217 218.12 31.3313 217.96 31.3313V31.3249Z" fill="var(--fill-0, white)"/>
</g>
</g>
</svg>
