<svg width="40" height="40" viewBox="0 0 22 27" fill="none" xmlns="http://www.w3.org/2000/svg" aria-hidden="true">
  <path d="M15.866 14.8315C15.866 14.2601 15.4027 13.7968 14.8313 13.7968H6.55335C5.98188 13.7968 5.51861 14.2601 5.51861 14.8315C5.51861 15.403 5.98188 15.8663 6.55335 15.8663H14.8313C15.4027 15.8663 15.866 15.403 15.866 14.8315Z" fill="white"/>
  <path d="M15.866 20.3495C15.866 19.7781 15.4027 19.3148 14.8313 19.3148H6.55335C5.98188 19.3148 5.51861 19.7781 5.51861 20.3495C5.51861 20.921 5.98188 21.3843 6.55335 21.3843H14.8313C15.4027 21.3843 15.866 20.921 15.866 20.3495Z" fill="white"/>
  <path fill-rule="evenodd" clip-rule="evenodd" d="M3.79404 0C1.69866 0 0 1.69866 0 3.79404V23.1092C0 25.2046 1.69866 26.9032 3.79404 26.9032H17.5906C19.686 26.9032 21.3846 25.2046 21.3846 23.1092V7.88838C21.3846 7.36305 21.2133 6.85206 20.8966 6.43291L16.7607 0.958914C16.3043 0.354985 15.5913 0 14.8343 0H3.79404ZM2.06948 3.79404C2.06948 2.84159 2.84159 2.06948 3.79404 2.06948H13.7965V8.13588C13.7965 8.70735 14.2598 9.17062 14.8313 9.17062H19.3151V23.1092C19.3151 24.0617 18.5431 24.8337 17.5906 24.8337H3.79404C2.84159 24.8337 2.06948 24.0617 2.06948 23.1092V3.79404Z" fill="white"/>
</svg>
