<svg preserveAspectRatio="none" width="100%" height="100%" overflow="visible" style="display: block;" viewBox="0 0 74.8587 74.8587" fill="none" xmlns="http://www.w3.org/2000/svg">
<g id="Cloud Upload">
<path id="Vector" d="M25.9557 43.1081L29.2542 46.4065L35.3131 40.371V62.9024H39.9918V40.371L46.0506 46.4065L49.3491 43.1081L37.6524 31.4114L25.9557 43.1081Z" fill="var(--fill-0, #2669F3)"/>
<path id="Vector_2" d="M55.0411 52.4654H53.8715V47.7867H55.0411C57.8331 47.8984 60.555 46.8964 62.6082 45.0012C64.6614 43.1059 65.8776 40.4727 65.9892 37.6808C66.1009 34.8889 65.0989 32.1669 63.2037 30.1137C61.3085 28.0606 58.6752 26.8444 55.8833 26.7327H53.8715L53.6375 24.8144C53.1185 20.876 51.1856 17.2606 48.1988 14.6416C45.212 12.0225 41.375 10.5785 37.4025 10.5785C33.4301 10.5785 29.5931 12.0225 26.6063 14.6416C23.6195 17.2606 21.6866 20.876 21.1676 24.8144L21.1208 26.7327H19.1089C16.317 26.8444 13.6838 28.0606 11.7886 30.1137C9.89333 32.1669 8.89134 34.8889 9.00302 37.6808C9.11469 40.4727 10.3309 43.1059 12.3841 45.0012C14.4372 46.8964 17.1592 47.8984 19.9511 47.7867H21.1208V52.4654H19.9511C16.1998 52.4416 12.5896 51.032 9.81473 48.5074C7.03986 45.9829 5.29614 42.5217 4.91884 38.7893C4.54154 35.0569 5.55728 31.3168 7.77078 28.288C9.98427 25.2592 13.2393 23.1556 16.91 22.3815C17.9199 17.6713 20.5145 13.4499 24.2609 10.4216C28.0073 7.39333 32.6789 5.74136 37.4961 5.74136C42.3134 5.74136 46.985 7.39333 50.7313 10.4216C54.4777 13.4499 57.0724 17.6713 58.0823 22.3815C61.753 23.1556 65.008 25.2592 67.2215 28.288C69.435 31.3168 70.4507 35.0569 70.0734 38.7893C69.6961 42.5217 67.9524 45.9829 65.1775 48.5074C62.4026 51.032 58.7925 52.4416 55.0411 52.4654Z" fill="var(--fill-0, #2669F3)"/>
</g>
</svg>
