<svg preserveAspectRatio="none" width="100%" height="100%" overflow="visible" style="display: block;" viewBox="0 0 35.19 40.6778" fill="none" xmlns="http://www.w3.org/2000/svg">
<path id="Vector" d="M17.595 0L35.19 6.15825V20.3389C35.19 27.6005 30.7323 32.6759 26.5758 35.8279C24.4805 37.4171 22.3953 38.5713 20.8385 39.3281C20.058 39.7074 19.4043 39.9898 18.9407 40.1792C18.7086 40.274 18.5237 40.3456 18.3938 40.3945C18.3289 40.419 18.2777 40.438 18.2411 40.4512L18.1973 40.467L18.1839 40.4718L18.1793 40.4733L18.1776 40.4739C18.1769 40.4742 18.1763 40.4744 17.595 38.8136C17.0137 40.4744 17.0131 40.4742 17.0124 40.4739L17.0107 40.4733L17.0061 40.4718L16.9927 40.467L16.9489 40.4512C16.9123 40.438 16.8611 40.419 16.7962 40.3945C16.6663 40.3456 16.4814 40.274 16.2493 40.1792C15.7857 39.9898 15.1321 39.7074 14.3515 39.3281C12.7948 38.5713 10.7096 37.4171 8.61409 35.8279C4.45771 32.6759 0 27.6005 0 20.3389V6.15825L17.595 0ZM17.595 38.8136L17.0124 40.4739L17.595 40.6778L18.1776 40.4739L17.595 38.8136ZM17.595 36.9276C17.6001 36.9255 17.6052 36.9234 17.6103 36.9213C18.0127 36.7571 18.5962 36.5053 19.3001 36.1631C20.7125 35.4765 22.5862 34.437 24.4497 33.024C28.2109 30.1716 31.671 26.0097 31.671 20.3389V8.65491L17.595 3.72831L3.519 8.65491V20.3389C3.519 26.0097 6.97904 30.1716 10.7404 33.024C12.6037 34.437 14.4775 35.4765 15.8899 36.1631C16.5938 36.5053 17.1773 36.7571 17.5797 36.9213C17.5848 36.9234 17.5899 36.9255 17.595 36.9276ZM28.2789 13.9047L15.8373 26.3461L8.37239 18.8813L10.8607 16.393L15.8373 21.3696L25.7906 11.4164L28.2789 13.9047Z" fill="var(--fill-0, #2669F3)"/>
</svg>
