<svg preserveAspectRatio="xMidYMid meet" overflow="visible" style="display: block;" viewBox="0 0 46.0669 46.0669" fill="none" xmlns="http://www.w3.org/2000/svg">
<g id="Lightning Charge" clip-path="url(#clip0_0_63)">
<path id="Vector" d="M32.3937 0.195782C32.6755 0.359143 32.8935 0.613235 33.0122 0.91655C33.131 1.21986 33.1433 1.55447 33.0472 1.86571L27.8618 18.7147H37.4294C37.7105 18.7146 37.9856 18.7968 38.2205 18.9512C38.4555 19.1056 38.6401 19.3255 38.7516 19.5836C38.863 19.8417 38.8965 20.1268 38.8477 20.4038C38.799 20.6807 38.6703 20.9373 38.4774 21.1418L15.4439 45.6149C15.2211 45.8519 14.9245 46.0064 14.6026 46.0532C14.2806 46.1001 13.9523 46.0365 13.6711 45.8729C13.39 45.7093 13.1725 45.4552 13.0542 45.1522C12.9359 44.8491 12.9237 44.5149 13.0197 44.2041L18.2051 27.3522H8.63754C8.35638 27.3523 8.08133 27.2701 7.84636 27.1157C7.61139 26.9613 7.42678 26.7414 7.31532 26.4833C7.20386 26.2252 7.17043 25.9401 7.21916 25.6631C7.26789 25.3862 7.39664 25.1297 7.58952 24.9251L30.623 0.45203C30.8456 0.215358 31.1417 0.0609464 31.4632 0.0139004C31.7847 -0.0331456 32.1126 0.0299412 32.3937 0.192903V0.195782ZM11.9688 24.473H20.1543C20.3796 24.473 20.6017 24.5258 20.8029 24.6273C21.004 24.7288 21.1786 24.876 21.3124 25.0572C21.4463 25.2384 21.5358 25.4485 21.5736 25.6706C21.6115 25.8927 21.5968 26.1205 21.5305 26.3359L17.5918 39.1281L34.0953 21.5939H25.9126C25.6873 21.5939 25.4652 21.5411 25.264 21.4396C25.0629 21.3382 24.8884 21.1909 24.7545 21.0097C24.6206 20.8285 24.5311 20.6184 24.4933 20.3963C24.4554 20.1742 24.4702 19.9464 24.5364 19.731L28.4751 6.93883L11.9688 24.473Z" fill="var(--fill-0, white)"/>
</g>
<defs>
<clipPath id="clip0_0_63">
<rect width="46.0669" height="46.0669" fill="white"/>
</clipPath>
</defs>
</svg>
