<svg preserveAspectRatio="xMidYMid meet" overflow="visible" style="display: block;" viewBox="0 0 42.228 47.9864" fill="none" xmlns="http://www.w3.org/2000/svg">
<g id="Secured">
<path id="Vector" d="M21.114 0.77515L38.709 6.9334V21.114C38.709 28.3756 34.2514 33.4511 30.0949 36.6031C27.9995 38.1922 25.9143 39.3465 24.3575 40.1032C23.577 40.4826 22.9233 40.765 22.4597 40.9543C22.2276 41.0491 22.0427 41.1208 21.9129 41.1697C21.8479 41.1941 21.7967 41.2131 21.7601 41.2263L21.7163 41.2422L21.7029 41.2469L21.6984 41.2485L21.6966 41.249C21.6959 41.2494 21.6954 41.2495 21.114 39.5888C20.5327 41.2495 20.5322 41.2494 20.5315 41.249L20.5297 41.2485L20.5251 41.2469L20.5118 41.2422L20.468 41.2263C20.4314 41.2131 20.3802 41.1941 20.3152 41.1697C20.1854 41.1208 20.0005 41.0491 19.7684 40.9543C19.3048 40.765 18.6511 40.4826 17.8706 40.1032C16.3138 39.3465 14.2287 38.1922 12.1331 36.6031C7.97675 33.4511 3.51904 28.3756 3.51904 21.114V6.9334L21.114 0.77515ZM21.114 39.5888L20.5315 41.249L21.114 41.4529L21.6966 41.249L21.114 39.5888ZM21.114 37.7027C21.1191 37.7006 21.1243 37.6985 21.1294 37.6964C21.5318 37.5323 22.1152 37.2805 22.8192 36.9382C24.2315 36.2517 26.1052 35.2122 27.9687 33.7991C31.73 30.9468 35.19 26.7849 35.19 21.114V9.43006L21.114 4.50346L7.03804 9.43006V21.114C7.03804 26.7849 10.4981 30.9468 14.2595 33.7991C16.1228 35.2122 17.9966 36.2517 19.4089 36.9382C20.1129 37.2805 20.6963 37.5323 21.0987 37.6964C21.1038 37.6985 21.1089 37.7006 21.114 37.7027ZM31.7979 14.6798L19.3563 27.1213L11.8914 19.6564L14.3798 17.1681L19.3563 22.1447L29.3096 12.1915L31.7979 14.6798Z" fill="var(--fill-0, white)"/>
</g>
</svg>
