<svg preserveAspectRatio="none" width="100%" height="100%" overflow="visible" style="display: block;" viewBox="0 0 26 28" fill="none" xmlns="http://www.w3.org/2000/svg">
<g id="Shield Lock">
<path id="Vector" d="M9.07199 2.94063C7.52944 3.36546 5.99745 3.82771 4.47736 4.32695C4.33845 4.37175 4.21495 4.45475 4.12101 4.56645C4.02707 4.67815 3.96647 4.81404 3.94615 4.95857C3.04892 11.691 5.12193 16.6031 7.59497 19.8389C8.64157 21.223 9.89012 22.4421 11.2989 23.4553C11.8592 23.8505 12.3548 24.1355 12.7451 24.3186C12.9395 24.4103 13.0976 24.474 13.2196 24.5097C13.2734 24.526 13.328 24.5395 13.3832 24.5501C13.4379 24.5394 13.4919 24.5259 13.5452 24.5097C13.6682 24.473 13.827 24.4092 14.0213 24.3186C14.41 24.1355 14.9072 23.8489 15.4676 23.4553C16.8763 22.4421 18.1248 21.223 19.1714 19.8389C21.6445 16.6047 23.7175 11.691 22.8203 4.95857C22.7999 4.81404 22.7393 4.67815 22.6454 4.56645C22.5515 4.45475 22.428 4.37175 22.2891 4.32695C21.2347 3.98199 19.4549 3.42001 17.6944 2.94225C15.8967 2.45477 14.2432 2.09361 13.3832 2.09361C12.5248 2.09361 10.8697 2.45315 9.07199 2.94063ZM8.64119 1.2725C10.3984 0.794737 12.2657 0.365559 13.3832 0.365559C14.5007 0.365559 16.368 0.794737 18.1252 1.2725C19.9229 1.75836 21.7352 2.3333 22.8008 2.6815C23.2464 2.82864 23.6414 3.09848 23.9405 3.46002C24.2396 3.82156 24.4306 4.26013 24.4916 4.72536C25.4569 11.976 23.2171 17.3497 20.4995 20.9046C19.3466 22.4249 17.9726 23.764 16.4231 24.8773C15.8879 25.2635 15.3199 25.6022 14.7258 25.8895C14.2723 26.1033 13.7849 26.2782 13.3832 26.2782C12.9816 26.2782 12.4957 26.1033 12.0406 25.8895C11.4465 25.6022 10.8785 25.2635 10.3433 24.8773C8.79384 23.764 7.4198 22.4249 6.26695 20.9046C3.54936 17.3497 1.30954 11.976 2.27478 4.72536C2.33582 4.26013 2.52685 3.82156 2.82594 3.46002C3.12502 3.09848 3.52003 2.82864 3.96558 2.6815C5.51265 2.1746 7.07164 1.7048 8.64119 1.2725Z" fill="var(--fill-0, #5182F8)"/>
<path id="Vector_2" d="M15.8125 10.8926C15.8128 11.3952 15.6571 11.8854 15.3671 12.2959C15.077 12.7063 14.6668 13.0167 14.193 13.1842L14.8165 16.4071C14.8392 16.5243 14.8357 16.6451 14.8062 16.7608C14.7767 16.8765 14.722 16.9843 14.646 17.0764C14.57 17.1684 14.4746 17.2426 14.3666 17.2935C14.2586 17.3444 14.1407 17.3708 14.0213 17.3707H12.7451C12.6258 17.3705 12.5081 17.344 12.4003 17.293C12.2925 17.242 12.1973 17.1678 12.1215 17.0757C12.0456 16.9837 11.9911 16.876 11.9617 16.7604C11.9323 16.6448 11.9289 16.5242 11.9515 16.4071L12.5734 13.1842C12.1536 13.0358 11.7826 12.7748 11.5011 12.4298C11.2195 12.0848 11.0382 11.669 10.977 11.2279C10.9157 10.7868 10.9769 10.3374 11.1538 9.92872C11.3307 9.52006 11.6166 9.16788 11.9801 8.91069C12.3436 8.65349 12.7709 8.50116 13.2151 8.47035C13.6594 8.43954 14.1036 8.53144 14.4991 8.736C14.8947 8.94055 15.2264 9.2499 15.458 9.63023C15.6896 10.0106 15.8123 10.4473 15.8125 10.8926Z" fill="var(--fill-0, #5182F8)"/>
</g>
</svg>
