<svg preserveAspectRatio="xMidYMid meet" overflow="visible" style="display: block;" viewBox="0 0 23.0335 23.0335" fill="none" xmlns="http://www.w3.org/2000/svg">
<g id="Stars" clip-path="url(#clip0_0_29)">
<path id="Vector" d="M11.023 8.99315C11.1813 8.51808 11.8522 8.51808 12.0105 8.99315L12.939 11.7816C13.1434 12.3946 13.4878 12.9516 13.9448 13.4083C14.4018 13.8651 14.959 14.2092 15.5721 14.4132L18.3591 15.3417C18.8342 15.5001 18.8342 16.1709 18.3591 16.3293L15.5706 17.2578C14.9576 17.4622 14.4007 17.8066 13.9439 18.2636C13.4871 18.7206 13.1431 19.2778 12.939 19.8909L12.0105 22.6779C11.9764 22.7819 11.9102 22.8725 11.8216 22.9367C11.7329 23.001 11.6262 23.0355 11.5167 23.0355C11.4072 23.0355 11.3006 23.001 11.2119 22.9367C11.1232 22.8725 11.0571 22.7819 11.023 22.6779L10.0944 19.8894C9.89018 19.2766 9.54605 18.7197 9.08928 18.263C8.63252 17.8062 8.07567 17.4621 7.46284 17.2578L4.67436 16.3293C4.57033 16.2952 4.47974 16.229 4.41552 16.1404C4.3513 16.0517 4.31672 15.945 4.31672 15.8355C4.31672 15.726 4.3513 15.6193 4.41552 15.5307C4.47974 15.442 4.57033 15.3759 4.67436 15.3417L7.46284 14.4132C8.07567 14.209 8.63252 13.8648 9.08928 13.4081C9.54605 12.9513 9.89018 12.3945 10.0944 11.7816L11.023 8.99315ZM5.46181 1.65267C5.48246 1.59033 5.52222 1.53608 5.57546 1.49763C5.6287 1.45918 5.6927 1.43848 5.75837 1.43848C5.82404 1.43848 5.88804 1.45918 5.94128 1.49763C5.99452 1.53608 6.03428 1.59033 6.05492 1.65267L6.61205 3.32548C6.8611 4.07119 7.44557 4.65566 8.19128 4.90471L9.86408 5.46183C9.92643 5.48247 9.98068 5.52224 10.0191 5.57548C10.0576 5.62871 10.0783 5.69272 10.0783 5.75839C10.0783 5.82406 10.0576 5.88806 10.0191 5.9413C9.98068 5.99453 9.92643 6.0343 9.86408 6.05494L8.19128 6.61206C7.82328 6.7342 7.48888 6.94056 7.21472 7.21473C6.94055 7.4889 6.73418 7.8233 6.61205 8.1913L6.05492 9.8641C6.03428 9.92644 5.99452 9.98069 5.94128 10.0191C5.88804 10.0576 5.82404 10.0783 5.75837 10.0783C5.6927 10.0783 5.6287 10.0576 5.57546 10.0191C5.52222 9.98069 5.48246 9.92644 5.46181 9.8641L4.90469 8.1913C4.78256 7.8233 4.57619 7.4889 4.30202 7.21473C4.02785 6.94056 3.69346 6.7342 3.32546 6.61206L1.65266 6.05494C1.59031 6.0343 1.53606 5.99453 1.49761 5.9413C1.45916 5.88806 1.43846 5.82406 1.43846 5.75839C1.43846 5.69272 1.45916 5.62871 1.49761 5.57548C1.53606 5.52224 1.59031 5.48247 1.65266 5.46183L3.32546 4.90471C3.69346 4.78258 4.02785 4.57621 4.30202 4.30204C4.57619 4.02787 4.78256 3.69347 4.90469 3.32548L5.46181 1.65267ZM15.6383 0.142542C15.6525 0.101551 15.6791 0.066007 15.7145 0.0408512C15.7498 0.0156953 15.7921 0.00217764 15.8355 0.00217764C15.8789 0.00217764 15.9212 0.0156953 15.9565 0.0408512C15.9919 0.066007 16.0185 0.101551 16.0327 0.142542L16.4041 1.25679C16.5697 1.75488 16.9598 2.14501 17.4579 2.31057L18.5722 2.68198C18.6132 2.69619 18.6487 2.72282 18.6739 2.75817C18.699 2.79351 18.7125 2.83582 18.7125 2.8792C18.7125 2.92259 18.699 2.96489 18.6739 3.00024C18.6487 3.03559 18.6132 3.06222 18.5722 3.07643L17.4579 3.44784C17.2127 3.5299 16.9898 3.6678 16.807 3.85066C16.6241 4.03353 16.4862 4.25637 16.4041 4.50162L16.0327 5.61587C16.0185 5.65686 15.9919 5.6924 15.9565 5.71756C15.9212 5.74271 15.8789 5.75623 15.8355 5.75623C15.7921 5.75623 15.7498 5.74271 15.7145 5.71756C15.6791 5.6924 15.6525 5.65686 15.6383 5.61587L15.2669 4.50162C15.1848 4.25637 15.0469 4.03353 14.864 3.85066C14.6812 3.6678 14.4583 3.5299 14.2131 3.44784L13.1003 3.07643C13.0593 3.06222 13.0237 3.03559 12.9986 3.00024C12.9734 2.96489 12.9599 2.92259 12.9599 2.8792C12.9599 2.83582 12.9734 2.79351 12.9986 2.75817C13.0237 2.72282 13.0593 2.69619 13.1003 2.68198L14.2145 2.31057C14.7126 2.14501 15.1028 1.75488 15.2683 1.25679L15.6383 0.142542Z" fill="var(--fill-0, #2669F3)"/>
</g>
<defs>
<clipPath id="clip0_0_29">
<rect width="23.0335" height="23.0335" fill="white"/>
</clipPath>
</defs>
</svg>
