<svg preserveAspectRatio="none" width="100%" height="100%" overflow="visible" style="display: block;" viewBox="0 0 74.8587 74.8587" fill="none" xmlns="http://www.w3.org/2000/svg">
<g id="Cloud Upload">
<path id="Vector" d="M25.9557 42.108L29.2542 45.4065L35.3131 39.371V61.9024H39.9918V39.371L46.0506 45.4065L49.3491 42.108L37.6524 30.4114L25.9557 42.108Z" fill="var(--fill-0, #2669F3)"/>
<path id="Vector_2" d="M55.0411 51.4654H53.8715V46.7867H55.0411C57.8331 46.8984 60.555 45.8964 62.6082 44.0012C64.6614 42.1059 65.8776 39.4727 65.9892 36.6808C66.1009 33.8888 65.0989 31.1669 63.2037 29.1137C61.3085 27.0606 58.6752 25.8444 55.8833 25.7327H53.8715L53.6375 23.8144C53.1185 19.876 51.1856 16.2606 48.1988 13.6416C45.212 11.0225 41.375 9.57853 37.4026 9.57853C33.4301 9.57853 29.5931 11.0225 26.6063 13.6416C23.6195 16.2606 21.6866 19.876 21.1676 23.8144L21.1208 25.7327H19.109C16.317 25.8444 13.6838 27.0606 11.7886 29.1137C9.89333 31.1669 8.89135 33.8888 9.00302 36.6808C9.1147 39.4727 10.3309 42.1059 12.3841 44.0012C14.4372 45.8964 17.1592 46.8984 19.9511 46.7867H21.1208V51.4654H19.9511C16.1998 51.4416 12.5896 50.032 9.81474 47.5074C7.03986 44.9829 5.29615 41.5217 4.91885 37.7893C4.54155 34.0569 5.55729 30.3168 7.77078 27.288C9.98428 24.2592 13.2393 22.1556 16.91 21.3815C17.9199 16.6713 20.5145 12.4499 24.2609 9.4216C28.0073 6.39332 32.6789 4.74136 37.4961 4.74136C42.3134 4.74136 46.985 6.39332 50.7314 9.4216C54.4778 12.4499 57.0724 16.6713 58.0823 21.3815C61.753 22.1556 65.008 24.2592 67.2215 27.288C69.435 30.3168 70.4507 34.0569 70.0734 37.7893C69.6961 41.5217 67.9524 44.9829 65.1775 47.5074C62.4026 50.032 58.7925 51.4416 55.0411 51.4654Z" fill="var(--fill-0, #2669F3)"/>
</g>
</svg>
