<svg preserveAspectRatio="xMidYMid meet" overflow="visible" style="display: block;" viewBox="0 0 75 57" fill="none" xmlns="http://www.w3.org/2000/svg">
<path id="Vector" d="M46.3728 0.00117386C44.887 0.0117402 43.4117 0.0857102 41.8527 0.508392C40.2937 0.931074 38.7347 1.60736 37.0815 2.70634C35.0307 1.49113 33.0427 0.487259 31.1384 0.254783C28.7737 -0.0410943 26.5765 0.117412 24.0234 0.170247C20.9996 0.23365 19.022 1.79757 15.8203 3.04448C12.6186 4.2914 8.49609 5.49604 2.67857 5.49604H0V31.5332L1.5067 32.2941L6.44531 34.7456L24.0234 54.5271L24.1071 54.6117C26.1161 56.6194 28.826 57.1161 31.2221 56.9787C33.6182 56.8413 35.8677 56.1333 37.6674 55.0344C41.6225 52.6251 52.3996 45.0591 52.3996 45.0591L52.6507 44.89L52.8181 44.7209C54.0946 43.4423 54.7328 41.8784 55.1618 40.2405L65.4576 34.9992L73.1585 32.3786L75 31.7868V5.49604H72.3214C66.5144 5.49604 62.3814 4.22799 59.1797 2.95995C55.978 1.6919 54.0318 0.149114 50.9766 0.0857102C49.3443 0.0540084 47.8585 -0.00939251 46.3728 0.00117386ZM46.4565 5.4115C47.6597 5.40093 49.0513 5.46434 50.8092 5.49604C51.0917 5.5066 53.6656 6.61615 57.2545 8.03213C60.2888 9.23677 64.5054 10.304 69.6429 10.6528V27.8982L63.4487 30.0116H63.2813L63.1138 30.0961L54.9944 34.2384C54.5445 33.0021 53.9272 31.8608 52.9855 30.8569L52.8181 30.6033L41.4342 16.4858L39.76 14.3724L37.6674 16.0631L30.4688 21.9806C28.0518 23.6714 26.0951 23.1853 24.1071 22.2342C23.5317 21.9595 23.5631 21.875 23.1027 21.5579L35.3237 11.329L35.4911 11.16C39.1218 7.52491 41.3504 6.26743 43.2757 5.74965C44.2383 5.48547 45.2532 5.42207 46.4565 5.4115ZM27.7902 5.49604C28.8156 5.4749 29.6735 5.48547 30.4688 5.58057C31.1698 5.66511 31.965 6.26743 32.6451 6.51047C32.373 6.76408 32.1742 6.91202 31.8917 7.18676C31.829 7.25017 31.7871 7.29244 31.7243 7.35584L17.0759 19.6136L14.8158 21.4734L16.8248 23.5868C16.8248 23.5868 18.7605 25.7002 21.7634 27.1373C24.7663 28.5745 29.4015 29.3881 33.5658 26.4611L33.7333 26.292L38.923 21.9806L48.8002 34.2384L48.8839 34.4075L48.9676 34.492C50.7359 36.2567 50.6941 39.0358 48.9676 40.8322C48.9467 40.8534 48.9886 40.8956 48.9676 40.9168C48.9467 40.9273 48.591 41.1387 48.5491 41.1704L45.0335 36.3518L40.6808 39.5642L44.1127 44.2137C42.7211 45.1647 42.0933 45.6614 40.5971 46.6653L36.9978 41.7621L32.6451 44.9745L36.077 49.624C35.7736 49.8142 35.1458 50.2369 34.9051 50.3849C34.0576 50.9026 32.4254 51.4838 30.971 51.5684C29.6003 51.6423 28.554 51.3253 28.0413 50.8921L27.9576 50.8075L10.0446 30.7724L9.70982 30.3497L5.35714 28.1518V10.6528C10.4736 10.3146 14.7217 9.28961 17.7455 8.11666C21.3239 6.73238 23.877 5.59114 24.1908 5.58057C25.5615 5.54887 26.7648 5.51717 27.7902 5.49604Z" fill="var(--fill-0, #2669F3)"/>
</svg>
