<svg preserveAspectRatio="xMidYMid meet" overflow="visible" style="display: block;" viewBox="0 0 48.9506 65" fill="none" xmlns="http://www.w3.org/2000/svg">
<path id="Vector" d="M27.1557 25.3725C27.6043 24.0318 29.505 24.0318 29.9537 25.3725L32.5845 33.2416C33.1636 34.9714 34.1392 36.5431 35.4341 37.8321C36.729 39.1211 38.3075 40.092 40.0446 40.6678L47.9411 43.2882C49.2871 43.735 49.2871 45.6282 47.9411 46.0751L40.0405 48.6954C38.3038 49.2721 36.7258 50.2439 35.4316 51.5336C34.1374 52.8233 33.1626 54.3956 32.5845 56.1257L29.9537 63.9908C29.857 64.2843 29.6696 64.5399 29.4184 64.7212C29.1672 64.9024 28.8649 65 28.5547 65C28.2445 65 27.9422 64.9024 27.691 64.7212C27.4397 64.5399 27.2524 64.2843 27.1557 63.9908L24.5248 56.1217C23.9462 54.3923 22.9712 52.8208 21.677 51.5319C20.3829 50.2429 18.8051 49.2717 17.0688 48.6954L9.16823 46.0751C8.87349 45.9787 8.61683 45.7921 8.43487 45.5419C8.25291 45.2917 8.15494 44.9906 8.15494 44.6816C8.15494 44.3726 8.25291 44.0716 8.43487 43.8213C8.61683 43.5711 8.87349 43.3845 9.16823 43.2882L17.0688 40.6678C18.8051 40.0915 20.3829 39.1203 21.677 37.8314C22.9712 36.5424 23.9462 34.9709 24.5248 33.2416L27.1557 25.3725ZM11.3993 4.65769C11.4578 4.48176 11.5705 4.32866 11.7213 4.22015C11.8722 4.11164 12.0535 4.05324 12.2396 4.05324C12.4256 4.05324 12.607 4.11164 12.7578 4.22015C12.9086 4.32866 13.0213 4.48176 13.0798 4.65769L14.6583 9.37833C15.3639 11.4827 17.0199 13.1321 19.1327 13.8349L23.8722 15.4071C24.0489 15.4654 24.2026 15.5776 24.3115 15.7278C24.4205 15.8781 24.4791 16.0587 24.4791 16.244C24.4791 16.4293 24.4205 16.6099 24.3115 16.7602C24.2026 16.9104 24.0489 17.0226 23.8722 17.0809L19.1327 18.6531C18.0901 18.9977 17.1426 19.5801 16.3658 20.3538C15.589 21.1275 15.0043 22.0712 14.6583 23.1096L13.0798 27.8303C13.0213 28.0062 12.9086 28.1593 12.7578 28.2678C12.607 28.3763 12.4256 28.4347 12.2396 28.4347C12.0535 28.4347 11.8722 28.3763 11.7213 28.2678C11.5705 28.1593 11.4578 28.0062 11.3993 27.8303L9.82083 23.1096C9.4748 22.0712 8.8901 21.1275 8.1133 20.3538C7.3365 19.5801 6.38905 18.9977 5.34641 18.6531L0.60687 17.0809C0.430236 17.0226 0.276527 16.9104 0.167582 16.7602C0.058638 16.6099 0 16.4293 0 16.244C0 16.0587 0.058638 15.8781 0.167582 15.7278C0.276527 15.5776 0.430236 15.4654 0.60687 15.4071L5.34641 13.8349C6.38905 13.4903 7.3365 12.9079 8.1133 12.1342C8.8901 11.3605 9.4748 10.4168 9.82083 9.37833L11.3993 4.65769ZM40.2322 0.396106C40.2725 0.280431 40.3479 0.180126 40.4481 0.109136C40.5482 0.0381467 40.6681 0 40.791 0C40.9139 0 41.0338 0.0381467 41.1339 0.109136C41.2341 0.180126 41.3095 0.280431 41.3498 0.396106L42.4021 3.54049C42.8712 4.94613 43.9765 6.04707 45.3878 6.51426L48.5448 7.56239C48.6609 7.60249 48.7616 7.67764 48.8329 7.77739C48.9042 7.87713 48.9425 7.99652 48.9425 8.11895C48.9425 8.24138 48.9042 8.36077 48.8329 8.46052C48.7616 8.56026 48.6609 8.63541 48.5448 8.67552L45.3878 9.72365C44.6929 9.95521 44.0616 10.3444 43.5434 10.8604C43.0253 11.3765 42.6346 12.0053 42.4021 12.6974L41.3498 15.8418C41.3095 15.9575 41.2341 16.0578 41.1339 16.1288C41.0338 16.1998 40.9139 16.2379 40.791 16.2379C40.6681 16.2379 40.5482 16.1998 40.4481 16.1288C40.3479 16.0578 40.2725 15.9575 40.2322 15.8418L39.1799 12.6974C38.9474 12.0053 38.5567 11.3765 38.0386 10.8604C37.5205 10.3444 36.8891 9.95521 36.1942 9.72365L33.0413 8.67552C32.9252 8.63541 32.8245 8.56026 32.7532 8.46052C32.6819 8.36077 32.6436 8.24138 32.6436 8.11895C32.6436 7.99652 32.6819 7.87713 32.7532 7.77739C32.8245 7.67764 32.9252 7.60249 33.0413 7.56239L36.1983 6.51426C37.6096 6.04707 38.7149 4.94613 39.184 3.54049L40.2322 0.396106Z" fill="var(--fill-0, #2669F3)"/>
</svg>
