<svg preserveAspectRatio="none" width="100%" height="100%" overflow="visible" style="display: block;" viewBox="0 0 40.5285 38.649" fill="none" xmlns="http://www.w3.org/2000/svg">
<g id="Headset">
<path id="Vector" d="M35.2999 16.5053C35.2999 8.2013 28.5683 1.46958 20.2642 1.46958C11.9602 1.46958 5.22848 8.2013 5.22848 16.5053" stroke="var(--stroke-0, #2669F3)" stroke-width="2.93917" stroke-linecap="round" stroke-linejoin="round"/>
<path id="Vector_2" d="M1.46958 24.8471V21.3198C1.46958 19.5948 2.64348 18.0914 4.31684 17.673L7.58627 16.8557C8.298 16.6777 8.98745 17.216 8.98745 17.9497V28.2172C8.98745 28.951 8.298 29.4892 7.58627 29.3113L4.31684 28.4939C2.64348 28.0755 1.46958 26.5721 1.46958 24.8471Z" stroke="var(--stroke-0, #2669F3)" stroke-width="2.93917"/>
<path id="Vector_3" d="M39.0589 24.8471V21.3198C39.0589 19.5948 37.885 18.0914 36.2117 17.673L32.9422 16.8557C32.2304 16.6777 31.541 17.216 31.541 17.9497V28.2172C31.541 28.951 32.2304 29.4892 32.9422 29.3113L36.2117 28.4939C37.885 28.0755 39.0589 26.5721 39.0589 24.8471Z" stroke="var(--stroke-0, #2669F3)" stroke-width="2.93917"/>
<path id="Vector_4" d="M35.2999 29.6616V30.6013C35.2999 32.6774 33.6171 34.3602 31.541 34.3602H24.9629" stroke="var(--stroke-0, #2669F3)" stroke-width="2.93917"/>
<path id="Vector_5" d="M23.0834 37.1794H17.445C15.888 37.1794 14.6258 35.9172 14.6258 34.3602C14.6258 32.8033 15.888 31.541 17.445 31.541H23.0834C24.6404 31.541 25.9026 32.8033 25.9026 34.3602C25.9026 35.9172 24.6404 37.1794 23.0834 37.1794Z" stroke="var(--stroke-0, #2669F3)" stroke-width="2.93917"/>
</g>
</svg>
