<svg preserveAspectRatio="xMidYMid meet" overflow="visible" style="display: block;" viewBox="0 0 36 41.4921" fill="none" xmlns="http://www.w3.org/2000/svg">
<g id="Lock">
<path id="Vector" d="M14 28.0733C14 26.1403 15.5671 24.5733 17.5 24.5733C19.4329 24.5733 21 26.1403 21 28.0733C21 30.0062 19.4329 31.5733 17.5 31.5733C15.5671 31.5733 14 30.0062 14 28.0733Z" fill="var(--fill-0, #2669F3)"/>
<path id="Vector_2" fill-rule="evenodd" clip-rule="evenodd" d="M7.46631 16.4278L6.70741 9.96651C6.61012 9.13811 6.61012 8.30205 6.70741 7.47365L6.76219 7.0073C7.34315 2.06075 11.4538 0.6548 16.6789 0.0732685C17.5565 -0.0244158 18.4433 -0.0244158 19.321 0.0732685C24.546 0.6548 28.6566 2.06077 29.2376 7.00733L29.2923 7.47365C29.3897 8.30205 29.3897 9.13811 29.2923 9.96649L28.5335 16.4278L30.1853 16.5526C32.7901 16.7494 34.9171 18.6018 35.3396 21.0414C36.2201 26.1296 36.2201 31.3195 35.3396 36.4078C34.9171 38.8474 32.7901 40.6998 30.1853 40.8965L26.5859 41.1685C20.8711 41.6 15.129 41.6 9.41415 41.1685L5.8147 40.8965C3.20981 40.6998 1.08281 38.8474 0.660531 36.4078C-0.220177 31.3195 -0.220177 26.1296 0.660531 21.0414C1.08281 18.6018 3.20981 16.7494 5.8147 16.5526L7.46631 16.4278ZM17.1004 3.46384C17.698 3.39733 18.3019 3.39733 18.8992 3.46384C22.4568 3.85974 25.2553 4.01655 25.651 7.38432L25.7056 7.85066C25.7735 8.42848 25.7735 9.01165 25.7056 9.5895L24.9331 16.1681C20.3158 15.8868 15.6841 15.8868 11.0668 16.1681L10.2941 9.5895C10.2262 9.01165 10.2262 8.42848 10.2941 7.85066L10.3489 7.38432C10.7444 4.01655 13.5431 3.85974 17.1004 3.46384ZM26.2987 19.6838C20.7751 19.2669 15.225 19.2669 9.70134 19.6838L6.10188 19.9558C5.15174 20.0275 4.3759 20.7032 4.22188 21.5931C3.4044 26.316 3.4044 31.1333 4.22188 35.8561C4.3759 36.746 5.15174 37.4218 6.10188 37.4935L9.70134 37.7652C15.225 38.1824 20.7751 38.1824 26.2987 37.7652L29.8981 37.4935C30.8484 37.4218 31.624 36.746 31.7782 35.8561C32.5957 31.1333 32.5957 26.316 31.7782 21.5931C31.624 20.7032 30.8484 20.0275 29.8981 19.9558L26.2987 19.6838Z" fill="var(--fill-0, #2669F3)"/>
</g>
</svg>
