<svg preserveAspectRatio="xMidYMid meet" overflow="visible" style="display: block;" viewBox="0 0 44 42" fill="none" xmlns="http://www.w3.org/2000/svg">
<path id="Vector" d="M42.5779 14.7894L29.3875 12.8732L23.4911 0.924355C23.33 0.597203 23.0651 0.332365 22.7378 0.171385C21.917 -0.233661 20.9195 0.103877 20.5091 0.924355L14.6127 12.8732L1.42234 14.7894C1.05868 14.8413 0.726193 15.0127 0.471633 15.2723C0.163885 15.5885 -0.00569854 16.0139 0.000146221 16.455C0.00599098 16.8961 0.186786 17.3168 0.502804 17.6247L10.0462 26.9252L7.79152 40.058C7.73865 40.3635 7.77247 40.6777 7.88915 40.965C8.00583 41.2523 8.20069 41.5011 8.45165 41.6833C8.70261 41.8655 8.99963 41.9737 9.30901 41.9958C9.61839 42.0178 9.92776 41.9528 10.202 41.8081L22.0001 35.6077L33.7982 41.8081C34.1203 41.9794 34.4943 42.0365 34.8528 41.9742C35.7567 41.8184 36.3645 40.9616 36.2087 40.058L33.954 26.9252L43.4974 17.6247C43.7572 17.3703 43.9286 17.0379 43.9806 16.6744C44.1208 15.7657 43.487 14.9244 42.5779 14.7894ZM29.9382 25.6166L31.8136 36.5373L22.0001 31.3859L12.1866 36.5424L14.062 25.6218L6.1239 17.8844L17.0959 16.2901L22.0001 6.35613L26.9043 16.2901L37.8763 17.8844L29.9382 25.6166Z" fill="var(--fill-0, #2669F3)"/>
</svg>
