<svg preserveAspectRatio="none" width="100%" height="100%" overflow="visible" style="display: block;" viewBox="0 0 22 22" fill="none" xmlns="http://www.w3.org/2000/svg">
<path id="Vector" d="M21.3736 14.6349L22 11.5321L14.0074 7.57281V4.21043C14.0084 3.49067 13.8491 2.77957 13.541 2.12776C13.2329 1.47595 12.7835 0.899477 12.2247 0.439399C11.881 0.155485 11.4476 0 11 0C10.5525 0 10.1191 0.155485 9.77524 0.439399C9.21656 0.899477 8.76716 1.47595 8.45903 2.12776C8.1509 2.77957 7.99162 3.49067 7.99256 4.21043V7.57281L0 11.5321L0.62635 14.6349L8.01287 13.6804L8.3764 17.4619L4.98512 18.9017V22H17.0149V18.9017L13.6237 17.4618L13.9872 13.6803L21.3736 14.6349ZM15.5111 19.8841V20.5102H6.48884V19.8841L9.97734 18.4027L9.49625 13.3983V11.9862L1.82529 12.9774L1.69977 12.3558L9.49625 8.49359V4.21043C9.49565 3.70915 9.60662 3.21389 9.82125 2.75994C10.0358 2.30598 10.3489 1.90449 10.7379 1.58407C10.8115 1.52329 10.9042 1.49 11 1.49C11.0958 1.49 11.1885 1.52329 11.2621 1.58407C11.6512 1.90449 11.9642 2.30598 12.1788 2.75994C12.3934 3.21389 12.5044 3.70915 12.5037 4.21043V8.49359L20.3003 12.3558L20.1748 12.9774L12.5037 11.9862V13.3983L12.0226 18.4027L15.5111 19.8841Z" fill="var(--fill-0, #2669F3)"/>
</svg>
