<svg preserveAspectRatio="none" width="100%" height="100%" overflow="visible" style="display: block;" viewBox="0 0 32 32" fill="none" xmlns="http://www.w3.org/2000/svg">
<g id="Status">
<path id="Vector" d="M21.2322 25.5555H11.2322V27.5555H21.2322V25.5555Z" fill="var(--fill-0, #2669F3)"/>
<path id="Vector_2" d="M19.2322 29.5555H13.2322V31.5555H19.2322V29.5555Z" fill="var(--fill-0, #2669F3)"/>
<path id="Vector_3" d="M11.0467 19.6961C10.1102 18.9817 9.36366 18.048 8.87287 16.9772C8.38207 15.9064 8.16207 14.7313 8.23222 13.5555C8.23465 11.4345 9.07829 9.40111 10.5781 7.90135C12.0778 6.40159 14.1112 5.55795 16.2322 5.55552V3.55552C13.581 3.55845 11.0391 4.61297 9.1644 6.48769C7.28967 8.36242 6.23516 10.9043 6.23222 13.5555C6.16433 15.0083 6.44263 16.4565 7.0442 17.7807C7.64576 19.1048 8.55336 20.2671 9.69222 21.1717C10.7039 22.1063 11.2322 22.637 11.2322 23.5555H13.2322C13.2322 21.7155 12.1214 20.6893 11.0467 19.6961Z" fill="var(--fill-0, #2669F3)"/>
<path id="Vector_4" d="M21.4099 19.6981C20.3391 20.6903 19.2322 21.7166 19.2322 23.5555H21.2322C21.2322 22.6361 21.7586 22.1055 22.7674 21.1698C23.9061 20.2652 24.8138 19.1033 25.4161 17.7796C26.0184 16.456 26.2981 15.0083 26.2322 13.5555H24.2322C24.3002 14.7321 24.0785 15.9075 23.5864 16.9785C23.0943 18.0494 22.347 18.9833 21.4099 19.6981Z" fill="var(--fill-0, #2669F3)"/>
<path id="Vector_5" d="M18.7322 10.5555C19.5607 10.5555 20.2322 9.88394 20.2322 9.05552C20.2322 8.22709 19.5607 7.55552 18.7322 7.55552C17.9038 7.55552 17.2322 8.22709 17.2322 9.05552C17.2322 9.88394 17.9038 10.5555 18.7322 10.5555Z" fill="var(--fill-0, #2669F3)"/>
<path id="Vector_6" d="M28.7322 10.5555C29.5607 10.5555 30.2322 9.88394 30.2322 9.05552C30.2322 8.22709 29.5607 7.55552 28.7322 7.55552C27.9038 7.55552 27.2322 8.22709 27.2322 9.05552C27.2322 9.88394 27.9038 10.5555 28.7322 10.5555Z" fill="var(--fill-0, #2669F3)"/>
<path id="Vector_7" d="M23.7322 10.5555C24.5607 10.5555 25.2322 9.88394 25.2322 9.05552C25.2322 8.22709 24.5607 7.55552 23.7322 7.55552C22.9038 7.55552 22.2322 8.22709 22.2322 9.05552C22.2322 9.88394 22.9038 10.5555 23.7322 10.5555Z" fill="var(--fill-0, #2669F3)"/>
<g id="Vector_8">
</g>
</g>
</svg>
