<svg preserveAspectRatio="xMidYMid meet" overflow="visible" style="display: block;" viewBox="0 0 32 32" fill="none" xmlns="http://www.w3.org/2000/svg">
<g id="Extracted Icon">
<circle id="Ellipse 174" cx="16" cy="16" r="16" fill="var(--fill-0, #F0F3FE)"/>
<path id="Vector" d="M20.482 23.7776L22.6856 22.3143L20.3023 15.2518L22.2891 13.265C22.715 12.8403 23.0411 12.326 23.2442 11.7587C23.4473 11.1915 23.5224 10.5853 23.464 9.98326C23.4287 9.61237 23.2645 9.26442 23 8.99992C22.7355 8.73549 22.3876 8.57128 22.0166 8.53587C21.4147 8.4776 20.8085 8.55269 20.2412 8.75577C19.674 8.95885 19.1597 9.28493 18.7349 9.7108L16.7481 11.6976L9.68569 9.31437L8.22238 11.5179L13.1511 15.3186L11.1314 17.7679L8.27669 16.6148L6.44591 18.4456L13.5543 25.554L15.3851 23.7232L14.2321 20.8685L16.6814 18.8488L20.482 23.7776ZM13.9161 23.4152L13.5461 23.7851L8.21479 18.4538L8.58476 18.0839L11.5215 19.2699L14.1943 16.0285L15.0287 15.1941L9.91023 11.247L10.2034 10.8055L17.0925 13.1303L19.6235 10.5993C19.9193 10.3028 20.2775 10.0757 20.6726 9.93427C21.0676 9.79279 21.4899 9.74055 21.9091 9.78111C21.9885 9.78868 22.063 9.8238 22.1195 9.88037C22.1762 9.937 22.2113 10.0115 22.2189 10.0909C22.2594 10.5101 22.2071 10.9323 22.0657 11.3274C21.9243 11.7224 21.6972 12.0806 21.4006 12.3764L18.8696 14.9074L21.1945 21.7966L20.753 22.0898L16.8058 16.9712L15.9714 17.8056L12.73 20.4785L13.9161 23.4152Z" fill="var(--fill-0, #2669F3)"/>
</g>
</svg>
