<svg preserveAspectRatio="xMidYMid meet" overflow="visible" style="display: block;" viewBox="0 0 27 29.6951" fill="none" xmlns="http://www.w3.org/2000/svg">
<g id="Delay">
<path id="Vector" d="M19.1107 16.2197H14.6515V11.6626C14.6515 11.0745 14.1615 10.5355 13.5245 10.5355C12.9365 10.5355 12.3975 11.0255 12.3975 11.6626V16.2197H12.2504C11.6624 16.2197 11.1234 16.7098 11.1234 17.3468C11.1234 17.9838 11.6134 18.4738 12.2504 18.4738H12.3975V18.6208C12.3975 19.2088 12.8875 19.7479 13.5245 19.7479C14.1125 19.7479 14.6515 19.2578 14.6515 18.6208V18.4738H19.1107C19.6987 18.4738 20.2377 17.9838 20.2377 17.3468C20.2377 16.7098 19.6987 16.2197 19.1107 16.2197Z" fill="var(--fill-0, #2669F3)"/>
<path id="Vector_2" d="M27 8.52632C27 5.83122 24.8439 3.67514 22.1488 3.67514C20.8748 3.67514 19.6987 4.16515 18.8167 4.99819C17.4936 4.41016 16.1216 4.01815 14.6025 3.92015V2.25408H15.9746C16.5626 2.25408 17.1016 1.76407 17.1016 1.12704C17.1016 0.490018 16.6116 0 15.9746 0H11.0254C10.4374 0 9.89837 0.490018 9.89837 1.12704C9.89837 1.76407 10.3884 2.25408 11.0254 2.25408H12.3975V3.96915C10.9274 4.11615 9.50635 4.45917 8.1833 5.04719C7.30127 4.21416 6.12523 3.72414 4.85118 3.72414C2.15608 3.72414 0 5.88022 0 8.57532C0 9.89837 0.53902 11.1724 1.51906 12.0544C0.931034 13.5245 0.588022 15.1416 0.588022 16.8076C0.588022 23.9129 6.37024 29.6951 13.4755 29.6951C20.5808 29.6951 26.363 23.9129 26.363 16.8076C26.363 15.1416 26.02 13.5245 25.4319 12.0544C26.461 11.1234 27 9.84936 27 8.52632ZM22.1488 5.88022C23.6189 5.88022 24.7949 7.05626 24.7949 8.52632C24.7949 9.01633 24.6479 9.50635 24.4029 9.89837C23.4719 8.42831 22.2958 7.20327 20.8748 6.22323C21.2668 5.97822 21.7078 5.88022 22.1488 5.88022ZM2.25408 8.52632C2.25408 7.05626 3.43013 5.88022 4.90018 5.88022C5.3412 5.88022 5.78221 5.97822 6.17423 6.22323C4.75318 7.20327 3.57713 8.47731 2.6461 9.89837C2.40109 9.45735 2.25408 9.01633 2.25408 8.52632ZM13.5245 27.49C7.64428 27.49 2.84211 22.6878 2.84211 16.8076C2.84211 10.9274 7.64428 6.12523 13.5245 6.12523C19.4047 6.12523 24.2069 10.9274 24.2069 16.8076C24.2069 22.6878 19.4047 27.49 13.5245 27.49Z" fill="var(--fill-0, #2669F3)"/>
</g>
</svg>
