<svg preserveAspectRatio="none" width="100%" height="100%" overflow="visible" style="display: block;" viewBox="0 0 49 49" fill="none" xmlns="http://www.w3.org/2000/svg">
<g id="Extracted Icon">
<circle id="Ellipse 174" cx="24.5" cy="24.5" r="24.5" fill="var(--fill-0, #F0F3FE)"/>
<path id="Vector" d="M24.6499 21.9297C24.8424 21.3522 25.6578 21.3522 25.8502 21.9297L26.9789 25.3194C27.2273 26.0646 27.6459 26.7416 28.2014 27.2969C28.7569 27.8522 29.4341 28.2704 30.1793 28.5185L33.5669 29.6472C34.1444 29.8397 34.1444 30.6552 33.5669 30.8477L30.1775 31.9765C29.4325 32.2249 28.7555 32.6435 28.2003 33.1991C27.6451 33.7547 27.2269 34.4319 26.9789 35.1772L25.8502 38.5652C25.8088 38.6917 25.7284 38.8018 25.6206 38.8799C25.5128 38.958 25.3831 39 25.2501 39C25.117 39 24.9873 38.958 24.8795 38.8799C24.7717 38.8018 24.6914 38.6917 24.6499 38.5652L23.5212 35.1755C23.273 34.4305 22.8547 33.7536 22.2995 33.1983C21.7443 32.6431 21.0675 32.2247 20.3226 31.9765L16.9332 30.8477C16.8068 30.8062 16.6967 30.7258 16.6186 30.618C16.5405 30.5102 16.4985 30.3806 16.4985 30.2475C16.4985 30.1144 16.5405 29.9847 16.6186 29.8769C16.6967 29.7691 16.8068 29.6887 16.9332 29.6472L20.3226 28.5185C21.0675 28.2702 21.7443 27.8518 22.2995 27.2966C22.8547 26.7413 23.273 26.0644 23.5212 25.3194L24.6499 21.9297ZM17.8904 13.0064C17.9154 12.9306 17.9638 12.8647 18.0285 12.8179C18.0932 12.7712 18.171 12.746 18.2508 12.746C18.3306 12.746 18.4084 12.7712 18.4731 12.8179C18.5378 12.8647 18.5862 12.9306 18.6113 13.0064L19.2885 15.0399C19.5912 15.9464 20.3016 16.6569 21.208 16.9597L23.2413 17.6369C23.3171 17.662 23.383 17.7103 23.4297 17.7751C23.4765 17.8398 23.5016 17.9176 23.5016 17.9974C23.5016 18.0772 23.4765 18.155 23.4297 18.2198C23.383 18.2845 23.3171 18.3328 23.2413 18.3579L21.208 19.0352C20.7607 19.1836 20.3542 19.4345 20.021 19.7678C19.6877 20.1011 19.4369 20.5076 19.2885 20.9549L18.6113 22.9884C18.5862 23.0642 18.5378 23.1302 18.4731 23.1769C18.4084 23.2236 18.3306 23.2488 18.2508 23.2488C18.171 23.2488 18.0932 23.2236 18.0285 23.1769C17.9638 23.1302 17.9154 23.0642 17.8904 22.9884L17.2132 20.9549C17.0647 20.5076 16.8139 20.1011 16.4806 19.7678C16.1474 19.4345 15.7409 19.1836 15.2936 19.0352L13.2603 18.3579C13.1846 18.3328 13.1186 18.2845 13.0719 18.2198C13.0252 18.155 13 18.0772 13 17.9974C13 17.9176 13.0252 17.8398 13.0719 17.7751C13.1186 17.7103 13.1846 17.662 13.2603 17.6369L15.2936 16.9597C15.7409 16.8112 16.1474 16.5603 16.4806 16.227C16.8139 15.8937 17.0647 15.4872 17.2132 15.0399L17.8904 13.0064ZM30.2598 11.1706C30.277 11.1208 30.3094 11.0776 30.3524 11.047C30.3953 11.0164 30.4468 11 30.4995 11C30.5522 11 30.6037 11.0164 30.6466 11.047C30.6896 11.0776 30.7219 11.1208 30.7392 11.1706L31.1907 12.5251C31.3919 13.1306 31.8661 13.6049 32.4715 13.8061L33.8259 14.2576C33.8757 14.2749 33.9189 14.3073 33.9495 14.3503C33.9801 14.3932 33.9965 14.4447 33.9965 14.4974C33.9965 14.5501 33.9801 14.6016 33.9495 14.6445C33.9189 14.6875 33.8757 14.7199 33.8259 14.7371L32.4715 15.1886C32.1734 15.2884 31.9026 15.456 31.6803 15.6783C31.458 15.9006 31.2904 16.1715 31.1907 16.4697L30.7392 17.8242C30.7219 17.874 30.6896 17.9172 30.6466 17.9478C30.6037 17.9784 30.5522 17.9948 30.4995 17.9948C30.4468 17.9948 30.3953 17.9784 30.3524 17.9478C30.3094 17.9172 30.277 17.874 30.2598 17.8242L29.8083 16.4697C29.7086 16.1715 29.541 15.9006 29.3187 15.6783C29.0964 15.456 28.8256 15.2884 28.5275 15.1886L27.1749 14.7371C27.125 14.7199 27.0818 14.6875 27.0513 14.6445C27.0207 14.6016 27.0042 14.5501 27.0042 14.4974C27.0042 14.4447 27.0207 14.3932 27.0513 14.3503C27.0818 14.3073 27.125 14.2749 27.1749 14.2576L28.5292 13.8061C29.1346 13.6049 29.6088 13.1306 29.8101 12.5251L30.2598 11.1706Z" fill="var(--fill-0, #2669F3)"/>
</g>
</svg>
