<svg preserveAspectRatio="xMidYMid meet" overflow="visible" style="display: block;" viewBox="0 0 35.0226 35" fill="none" xmlns="http://www.w3.org/2000/svg">
<g id="Icon">
<ellipse id="Ellipse 174" cx="17.5113" cy="17.5" rx="17.5113" ry="17.5" fill="var(--fill-0, #2669F3)"/>
<path id="Vector" d="M26.5333 16.7959L12.2092 10.5746C12.065 10.5117 11.9044 10.4878 11.746 10.5059C11.5877 10.5239 11.4382 10.5831 11.3149 10.6766C11.1916 10.7701 11.0996 10.894 11.0497 11.0339C10.9998 11.1737 10.994 11.3238 11.033 11.4666L12.6668 17.4997L11.033 23.5328C10.9937 23.6756 10.9992 23.8258 11.049 23.9659C11.0988 24.1059 11.1908 24.23 11.3142 24.3236C11.4375 24.4171 11.5873 24.4763 11.7458 24.4942C11.9043 24.5122 12.065 24.4881 12.2092 24.4247L26.5333 18.2035C26.678 18.1407 26.8004 18.0411 26.8861 17.9165C26.9719 17.7919 27.0174 17.6473 27.0174 17.4997C27.0174 17.3521 26.9719 17.2075 26.8861 17.0829C26.8004 16.9582 26.678 16.8587 26.5333 16.7959ZM13.0982 22.3188L13.8051 19.7082L18.591 17.4997L13.8051 15.2911L13.0982 12.6805L24.1951 17.4997L13.0982 22.3188Z" fill="var(--fill-0, white)"/>
</g>
</svg>
